<svg id="Layer_1" data-name="Layer 1" xmlns="http://www.w3.org/2000/svg" viewBox="0 0 122.88 119.79"><title>close-window</title><path d="M23.5,0H99.38a23.56,23.56,0,0,1,23.5,23.5V96.29a23.56,23.56,0,0,1-23.5,23.5H23.5a23.44,23.44,0,0,1-16.6-6.9l-.37-.4A23.43,23.43,0,0,1,0,96.29V23.5A23.56,23.56,0,0,1,23.5,0ZM41,49.35a7,7,0,0,1,9.89-9.89L61.44,50,72,39.46a7,7,0,1,1,9.89,9.9L71.33,59.9,81.87,70.43A7,7,0,0,1,72,80.33L61.44,69.79,50.9,80.33A7,7,0,0,1,41,70.43L51.55,59.89,41,49.35ZM99.38,12.52H23.5a11,11,0,0,0-11,11V96.29a10.92,10.92,0,0,0,3,7.49l.27.26a11,11,0,0,0,7.75,3.23H99.38a11,11,0,0,0,11-11V23.5a11,11,0,0,0-11-11Z"/></svg>