<svg version="1.1" id="Layer_1" xmlns="http://www.w3.org/2000/svg" xmlns:xlink="http://www.w3.org/1999/xlink" x="0px" y="0px"
	 width="100%" viewBox="0 0 100 100" enable-background="new 0 0 100 100" xml:space="preserve">
<path fill="#010101" opacity="0" stroke="none" 
	d="
M1.356172,17.232014 
	C1.000000,12.339156 1.093301,7.675451 0.950524,3.018985 
	C0.898997,1.338500 1.189554,0.940284 2.977674,0.944555 
	C34.937565,1.020890 66.897774,1.029075 98.857574,0.934659 
	C100.990929,0.928356 101.028961,1.724236 101.027092,3.352178 
	C100.990616,35.145752 100.982903,66.939407 101.044266,98.732910 
	C101.047798,100.558205 100.694679,101.056053 98.772507,101.051666 
	C66.979050,100.979050 35.185280,100.965393 3.392015,101.070999 
	C1.052111,101.078773 0.935248,100.318649 0.953245,98.397583 
	C1.051480,87.911598 1.000000,77.424217 1.000000,66.468658 
	C2.048551,65.138992 3.169289,65.432045 4.307320,65.771706 
	C28.251499,72.918159 52.840363,77.382767 77.097939,83.226151 
	C83.231277,84.703613 85.723221,83.126457 87.230957,76.908028 
	C89.936630,65.748932 92.223831,54.491550 94.830116,43.307159 
	C95.671227,39.697670 95.213005,36.427338 91.994835,33.885647 
	C88.993637,31.515318 89.410881,27.971565 89.318802,24.656681 
	C89.126381,17.730104 88.272545,16.736078 81.507477,16.712772 
	C57.706585,16.630774 33.905300,16.700871 10.104374,16.647070 
	C7.253635,16.640627 4.570329,17.862274 1.356172,17.232014 
z"/>
<path fill="#ECECED" opacity="1.000000" stroke="none" 
	d="
M1.000000,17.468658 
	C5.809467,14.209664 11.099106,15.006274 16.265898,15.000655 
	C38.746796,14.976205 61.227741,14.983294 83.708664,14.994827 
	C89.607681,14.997854 90.865440,16.212500 91.083763,22.086664 
	C91.157944,24.082338 91.054451,26.084421 91.120682,28.080639 
	C91.196846,30.375916 90.288231,32.653328 94.312103,33.390484 
	C97.053886,33.892773 97.484215,37.901741 96.890976,40.673386 
	C94.015671,54.106800 91.075996,67.531715 87.788338,80.868225 
	C86.856056,84.650040 83.691200,86.409904 79.604118,85.474915 
	C55.392323,79.936096 31.187014,74.368927 6.974794,68.831963 
	C4.743025,68.321587 3.292018,66.673424 1.289174,65.698090 
	C1.000000,49.979103 1.000000,33.958210 1.000000,17.468658 
z"/>
<path fill="#453F71" opacity="1.000000" stroke="none" 
	d="
M19.718765,66.260445 
	C6.942535,63.610157 6.942455,63.610157 6.942554,51.059074 
	C6.942625,42.239403 7.132889,33.413750 6.855543,24.602812 
	C6.733931,20.739321 8.085757,19.901043 11.711957,19.924574 
	C35.008228,20.075737 58.306381,20.070808 81.602760,19.928194 
	C85.126595,19.906624 86.412506,20.970547 86.075615,24.456347 
	C85.836601,26.929350 86.147346,29.451126 85.999245,31.938423 
	C85.829376,34.791393 85.885696,37.222782 89.636971,37.626026 
	C91.760826,37.854332 92.065735,39.293640 91.596977,41.303818 
	C88.843353,53.112152 86.040314,64.913834 83.621017,76.792526 
	C82.808418,80.782372 80.687096,80.455299 77.873230,79.798729 
	C58.626316,75.307755 39.374401,70.838226 19.718765,66.260445 
z"/>
<path fill="#95C262" opacity="1.000000" stroke="none" 
	d="
M16.480114,61.911041 
	C11.470499,61.782108 9.513259,60.076511 9.819816,54.947281 
	C10.364150,45.839622 10.100071,36.673340 9.906211,27.537270 
	C9.835291,24.195024 10.639727,22.911230 14.275352,22.938404 
	C35.712048,23.098640 57.151035,23.089382 78.587944,22.944233 
	C82.055702,22.920752 83.347626,23.877542 83.078262,27.411108 
	C82.813980,30.878113 83.068016,34.384628 83.153275,38.323471 
	C85.425804,42.193264 84.946404,45.981735 84.622131,49.713314 
	C84.326073,53.120129 84.140800,56.544224 83.398819,60.398167 
	C82.454453,62.071770 81.206360,62.401150 79.353218,62.500523 
	C66.060402,63.195484 53.257919,62.895317 40.454765,62.481140 
	C38.459541,62.416595 36.460316,62.448273 33.993988,62.547798 
	C27.965408,63.176807 22.460236,62.358624 16.480114,61.911041 
z"/>
<path fill="#758F66" opacity="1.000000" stroke="none" 
	d="
M16.255676,62.166042 
	C21.344902,60.067886 26.830009,61.432972 32.702419,61.082333 
	C43.917995,61.935879 54.261597,64.836510 64.725410,67.099190 
	C71.613846,68.588737 74.627861,67.398300 78.745499,61.311050 
	C80.060867,61.016106 81.127258,61.010532 82.593643,61.001190 
	C83.144844,60.809464 83.296059,60.621506 83.676514,60.713531 
	C82.960976,65.203293 81.874596,69.387947 81.121338,73.631721 
	C80.621284,76.448921 79.482307,77.115402 76.671036,76.449593 
	C56.630741,71.703377 36.554771,67.107796 16.255676,62.166042 
z"/>
<path fill="#789366" opacity="1.000000" stroke="none" 
	d="
M84.001038,60.609016 
	C83.905746,60.993507 83.449768,60.998241 83.221695,60.997829 
	C83.026932,53.912987 83.060234,46.828552 83.152756,39.258629 
	C87.561211,39.583687 88.821327,41.716286 87.310982,46.159191 
	C85.771263,50.688484 85.130615,55.523411 84.001038,60.609016 
z"/>
<path fill="#417945" opacity="1.000000" stroke="none" 
	d="
M37.001419,55.998001 
	C33.508183,55.997990 30.396761,55.471481 27.545620,56.109005 
	C21.839413,57.384930 18.470331,53.987488 14.816928,50.798756 
	C13.742862,49.861305 14.013421,48.687729 13.992332,47.578323 
	C13.935447,44.585693 13.970049,41.591297 13.970744,38.597603 
	C13.972500,31.037075 17.929485,26.999462 25.344595,26.998472 
	C39.647808,26.996563 53.951035,26.987160 68.254227,27.004459 
	C72.741776,27.009886 77.929939,32.197491 77.969147,36.667126 
	C77.989563,38.995377 77.973015,41.323956 77.972855,43.652386 
	C77.972267,52.215988 74.133965,55.997726 65.442085,55.997952 
	C56.128376,55.998192 46.814671,55.998005 37.001419,55.998001 
z"/>
<path fill="#426354" opacity="1.000000" stroke="none" 
	d="
M78.526138,61.011803 
	C78.885941,66.676155 73.515984,70.760086 67.908241,69.470337 
	C56.504417,66.847549 45.098038,64.235855 33.436008,61.371429 
	C48.138809,61.082829 63.098309,61.042381 78.526138,61.011803 
z"/>
<path fill="#93C061" opacity="1.000000" stroke="none" 
	d="
M43.674946,51.666985 
	C38.640167,49.394482 36.873154,45.495003 37.070637,40.658436 
	C37.301456,35.005604 41.601646,30.709940 46.405788,31.015728 
	C50.952824,31.305151 54.984383,36.364151 54.881214,41.651104 
	C54.760757,47.823895 50.340790,51.962139 43.674946,51.666985 
z"/>
<path fill="#8CBB5F" opacity="1.000000" stroke="none" 
	d="
M22.449089,38.457619 
	C24.584423,40.742016 24.443632,42.645401 21.827225,43.715313 
	C20.045881,44.443752 18.407999,43.543755 18.171389,41.575237 
	C17.831923,38.750961 19.413214,37.711563 22.449089,38.457619 
z"/>
<path fill="#8CBB5F" opacity="1.000000" stroke="none" 
	d="
M73.884491,40.994228 
	C73.020004,44.046093 71.265495,44.800404 69.043289,43.115898 
	C67.506676,41.951099 67.509529,40.026379 69.048004,38.862179 
	C71.279068,37.173882 73.022667,37.950336 73.884491,40.994228 
z"/>
</svg>